<?xml version="1.0" encoding="UTF-8" standalone="no"?>
<svg width="100px" height="78px" viewBox="0 0 100 78" version="1.1" xmlns="http://www.w3.org/2000/svg" xmlns:xlink="http://www.w3.org/1999/xlink" xmlns:sketch="http://www.bohemiancoding.com/sketch/ns">
<!-- Generator: Sketch 3.0.4 (8053) - http://www.bohemiancoding.com/sketch -->
<title>ninja</title>
<desc>Created with Sketch.</desc>
<defs></defs>
<g id="Page-1" stroke="none" stroke-width="1" fill="none" fill-rule="evenodd" sketch:type="MSPage">
<path d="M77.9698062,37.4511225 C77.9898731,37.9649251 78,38.4812799 78,39 C78,60.5391052 60.5391052,78 39,78 C17.4608948,78 0,60.5391052 0,39 C0,17.4608948 17.4608948,0 39,0 C54.7251216,0 68.2765294,9.30677472 74.4465676,22.7126681 L86,7 C86,7 88,20.5 87,21.5 C86.1769405,22.3230595 79.5957527,27.888107 77.2925631,29.8317038 C83.9998269,30.483974 92.5127516,30.3734061 99.5,29.5 C99.5000012,36 92.5000007,41 90.5,41 C89.0134941,41.3716266 82.379561,39.1532697 77.9698062,37.4511225 Z M11,48.9999998 L11,31.837816 L11,31.837816 C18.0884067,27.6207881 28.0137012,25 39,25 C49.9862988,25 59.9115933,27.6207881 67,31.837816 L67,49 C67,51.209139 54.463973,53 39,53 C23.536027,53 11,51.209139 11,49 Z M36.5045641,42.7960668 C35.0705137,38.2837133 30.6861637,35 25.5,35 C20.452634,35 16.1647382,38.1103007 14.6168732,42.4364527 C17.6791366,41.5222685 21.2231306,41 25,41 C29.2473308,41 33.2001572,41.6604836 36.5045641,42.7960668 Z M63.5045641,42.7960668 C62.0705137,38.2837133 57.6861637,35 52.5,35 C47.452634,35 43.1647382,38.1103007 41.6168732,42.4364527 C44.6791366,41.5222685 48.2231306,41 52,41 C56.2473308,41 60.2001572,41.6604836 63.5045641,42.7960668 Z" id="ninja" fill="#474445" sketch:type="MSShapeGroup"></path>
</g>
</svg>

